<?xml version="1.0" encoding="UTF-8" standalone="no"?>
<!DOCTYPE svg PUBLIC "-//W3C//DTD SVG 1.1//EN" "http://www.w3.org/Graphics/SVG/1.1/DTD/svg11.dtd">
<svg width="100%" height="100%" viewBox="0 0 1558 763" version="1.1" xmlns="http://www.w3.org/2000/svg" xmlns:xlink="http://www.w3.org/1999/xlink" xml:space="preserve" xmlns:serif="http://www.serif.com/" style="fill-rule:evenodd;clip-rule:evenodd;stroke-linejoin:round;stroke-miterlimit:2;">
    <g transform="matrix(4.16667,0,0,4.16667,1552.41,180.483)">
        <path d="M0,96.479L-3.799,96.028C-4.006,95.591 -4.406,95.253 -4.917,95.153L-16.094,92.951C-16.156,92.598 -16.423,92.302 -16.795,92.228L-16.885,92.211L-16.845,92.011C-16.7,91.271 -17.192,90.557 -17.935,90.429L-30.6,88.251C-31.318,88.127 -32.004,88.599 -32.145,89.314L-32.308,90.141L-33.051,89.995L-32.877,89.179C-32.746,88.563 -33.139,87.957 -33.755,87.825L-35.156,87.526C-35.773,87.395 -36.379,87.788 -36.51,88.404L-36.696,89.277L-37.493,89.12C-37.498,89.116 -37.502,89.112 -37.507,89.108L-37.328,88.271C-37.233,87.824 -37.518,87.384 -37.965,87.288L-38.965,87.075C-39.412,86.98 -39.852,87.265 -39.948,87.712L-40.164,88.727C-58.774,89.575 -63.528,106.351 -67.361,119.904C-70.171,129.838 -72.127,135.925 -76.744,135.925C-77.408,135.925 -77.886,135.725 -78.292,135.277C-80.79,132.525 -79.863,123.008 -79.186,116.058C-78.462,108.62 -78.182,104.968 -79.735,103.257C-80.259,102.679 -80.973,102.36 -81.744,102.36C-86.153,102.36 -89.629,108.806 -93.309,115.631C-94.931,118.64 -97.581,123.555 -98.963,124.437C-99.726,122.467 -98.288,114.61 -97.497,110.288C-95.959,101.889 -95.174,97.035 -96.915,94.947C-97.473,94.277 -98.261,93.908 -99.133,93.908C-104.028,93.908 -107.875,101.923 -113.185,114.151C-115.2,118.794 -117.927,125.074 -119.347,126.292C-120.45,124.941 -119.247,117.205 -118.726,113.855C-117.768,107.694 -117.366,104.664 -118.699,103.107C-119.189,102.536 -119.872,102.221 -120.621,102.221C-122.381,102.221 -124.595,103.552 -128.681,106.101C-131.796,108.044 -135.587,110.411 -139.414,112.032C-139.245,110.679 -139.158,109.327 -139.158,108.003C-139.158,104.134 -139.893,100.788 -141.285,98.328C-143.003,95.291 -145.631,93.687 -148.885,93.687C-155.735,93.687 -159.319,99.496 -159.319,105.235C-159.319,108.431 -158.274,111.432 -156.376,113.688C-154.17,116.307 -151.034,117.692 -147.307,117.692C-146.362,117.692 -145.406,117.607 -144.444,117.45C-146.391,123.349 -150.022,128.01 -154.386,128.01C-158.343,128.01 -159.202,123.618 -159.851,118.312C-160.209,115.383 -160.518,112.853 -162.863,112.853C-163.821,112.853 -165.025,113.34 -167.443,114.354C-168.855,114.946 -170.572,115.666 -172.394,116.3C-172.289,115.174 -172.235,114.043 -172.235,112.922C-172.235,108.775 -173.016,105.183 -174.494,102.534C-176.32,99.261 -179.118,97.53 -182.586,97.53C-187.263,97.53 -191.998,101.465 -191.998,108.985C-191.998,112.233 -190.976,115.27 -189.12,117.535C-186.927,120.211 -183.758,121.626 -179.956,121.626C-179.037,121.626 -178.095,121.544 -177.149,121.401C-178.853,127.58 -182.28,132.597 -186.438,132.597C-190.329,132.597 -191.341,127.147 -192.045,121.564C-192.436,118.467 -192.718,116.229 -194.886,116.229C-196.811,116.229 -198.245,118.039 -200.23,120.544C-202.371,123.248 -205.037,126.613 -207.717,126.613C-210.131,126.613 -211.965,125.124 -213.323,122.06C-214.245,119.98 -214.871,117.298 -215.178,114.161C-214.962,113.956 -214.749,113.749 -214.539,113.538C-203.733,102.699 -195.908,85.36 -198.741,78.534C-199.64,76.369 -201.49,75.177 -203.949,75.177C-208.399,75.177 -212.308,79.296 -215.253,87.089C-217.691,93.54 -219.147,101.893 -219.147,109.434C-219.147,110.517 -219.117,111.569 -219.058,112.59C-221.537,114.655 -224.455,116.439 -227.402,118.052C-227.912,115.125 -229.072,112.466 -230.723,110.649C-232.257,108.96 -234.147,108.067 -236.188,108.067C-247.143,108.067 -251.009,119.945 -253.079,126.652C-253.392,124.218 -253.699,121.015 -253.936,117.37C-252.826,115.382 -251.713,113.307 -250.581,111.161C-246.632,103.679 -234.156,78.59 -239.409,69.879C-240.254,68.477 -241.954,66.805 -245.251,66.805C-250.178,66.805 -253.74,71.087 -255.839,79.532C-257.746,87.205 -258.147,97.098 -258.147,104.044C-258.147,108.093 -258.01,112.397 -257.758,116.521C-264.004,127.563 -270.029,135.317 -278.252,135.317C-285.933,135.317 -291.89,131.962 -295.476,125.614C-301.527,114.906 -299.783,97.519 -291.238,83.331C-280.806,66.013 -262.573,56.422 -241.214,57.015C-233.642,57.225 -225.793,58.044 -218.203,58.835C-207.932,59.907 -197.313,61.01 -187.061,60.662C-170.987,60.11 -160.297,54.949 -152.602,49.309C-152.371,49.631 -152.125,49.937 -151.865,50.228C-149.875,52.451 -147.211,53.578 -143.948,53.578C-134.645,53.578 -128.933,44.261 -128.933,37.581C-128.933,35.804 -129.357,34.269 -130.161,33.14C-131.135,31.771 -132.647,31.017 -134.42,31.017C-138.021,31.017 -141.056,33.933 -145.257,37.968C-147.013,39.655 -148.98,41.545 -151.255,43.459C-153.155,36.934 -152.026,26.769 -151.222,19.533C-150.422,12.327 -150.208,9.764 -151.448,8.379C-151.905,7.868 -152.53,7.586 -153.207,7.586C-155.061,7.586 -157.086,7.979 -159.081,8.408C-159.079,8.291 -159.078,8.175 -159.078,8.059C-159.078,5.29 -159.688,3.056 -160.892,1.419C-161.87,0.09 -163.745,-1.493 -167.125,-1.493C-171.453,-1.493 -173.717,2.12 -173.717,5.689C-173.717,7.637 -173.064,9.467 -171.878,10.842C-170.912,11.962 -169.142,13.298 -166.201,13.298C-165.319,13.298 -164.415,13.219 -163.503,13.093C-165.929,23.14 -174.488,36.339 -182.649,36.339C-186.914,36.339 -190.275,34.808 -192.653,31.785C-186.112,24.872 -181.453,14.617 -181.453,7.501C-181.453,4.88 -182.063,2.766 -183.266,1.216C-184.226,-0.02 -186.06,-1.493 -189.346,-1.493C-196.068,-1.493 -200.229,8.921 -200.229,18.57C-200.229,23.341 -199.245,27.76 -197.43,31.253C-200.383,33.841 -203.603,35.502 -206.768,35.502C-210.882,35.502 -213.399,29.472 -214.533,25.877C-215.17,23.855 -215.713,21.58 -216.154,19.108C-215.493,17.641 -214.882,16.237 -214.33,14.937C-210.9,6.861 -207.456,-2.777 -205.161,-11.429C-197.906,-11.493 -189.401,-11.363 -179.628,-10.887C-178.599,-10.849 -177.715,-11.634 -177.664,-12.668C-177.614,-13.703 -178.412,-14.582 -179.446,-14.632C-188.886,-15.092 -197.137,-15.239 -204.221,-15.2C-203.106,-20.004 -202.433,-24.354 -202.433,-27.75C-202.433,-30.128 -202.754,-31.942 -203.414,-33.296C-204.286,-35.084 -205.787,-36.069 -207.64,-36.069C-210.743,-36.069 -215.085,-33.851 -218.155,-23.284C-218.891,-20.75 -219.51,-17.866 -219.997,-14.757C-230.906,-14.176 -236.489,-13.229 -236.906,-13.156C-237.926,-12.977 -238.608,-12.007 -238.43,-10.987C-238.271,-10.076 -237.479,-9.434 -236.585,-9.434C-236.478,-9.434 -236.37,-9.443 -236.261,-9.462C-236.163,-9.479 -230.886,-10.369 -220.512,-10.951C-220.999,-6.752 -221.262,-2.265 -221.262,2.254C-221.262,8.103 -220.839,13.677 -220.041,18.601C-227.328,34.525 -232.803,40.455 -234.852,40.455C-235.336,40.455 -235.694,40.3 -236.05,39.939C-238.687,37.256 -238.51,26.754 -238.38,19.085C-238.222,9.735 -238.238,4.338 -240.388,2.151C-241.033,1.495 -241.845,1.148 -242.736,1.148C-247.083,1.148 -249.856,8.216 -254.019,19.749C-255.762,24.578 -258.613,32.476 -260.341,33.934C-261.171,32.203 -261.126,25.847 -261.101,22.32C-261.05,14.985 -261.113,10.394 -262.992,8.502C-263.586,7.903 -264.332,7.586 -265.148,7.586C-270.065,7.586 -272.941,13.808 -275.986,20.395C-278.686,26.237 -281.748,32.859 -285.521,32.859C-286.424,32.859 -286.829,32.515 -287.081,32.216C-289.573,29.25 -287.563,17.75 -285.948,8.51C-285.168,4.049 -284.404,-0.323 -283.932,-4.327C-282.127,-5.534 -280.549,-7.303 -279.285,-9.579C-277.149,-13.424 -275.974,-18.486 -275.974,-23.832C-275.974,-28.791 -277.012,-33.404 -278.898,-36.82C-281.168,-40.932 -284.641,-43.196 -288.677,-43.196C-293.363,-43.196 -297.8,-41.165 -301.507,-37.322C-308.961,-29.596 -313.244,-15.123 -312.685,0.449C-312.465,6.591 -311.82,12.628 -311.198,18.465C-310.051,29.206 -308.968,39.352 -311.838,42.544C-312.243,42.995 -312.964,43.594 -314.544,43.594C-319.902,43.594 -323.745,31.568 -326.041,24.384C-328.138,17.824 -329.19,14.531 -331.741,14.531C-334.286,14.531 -335.838,17.668 -339.105,24.763C-341.282,29.491 -345.334,38.292 -347.84,38.292C-347.867,38.292 -347.908,38.292 -348.018,38.18C-350.335,35.833 -350.156,22.335 -350.013,11.489C-349.786,-5.672 -349.552,-23.417 -355.387,-29.33C-356.791,-30.754 -358.478,-31.475 -360.398,-31.475C-362.506,-31.475 -364.421,-30.612 -366.091,-28.91C-370.706,-24.205 -372.609,-13.648 -372.448,-5.272C-372.245,5.332 -368.668,12.092 -368.516,12.374C-368.026,13.284 -366.892,13.624 -365.98,13.136C-365.069,12.648 -364.726,11.513 -365.212,10.6C-365.245,10.538 -368.514,4.296 -368.699,-5.343C-368.845,-12.924 -367.076,-22.551 -363.414,-26.284C-362.463,-27.254 -361.476,-27.725 -360.398,-27.725C-359.493,-27.725 -358.749,-27.398 -358.056,-26.696C-353.322,-21.899 -353.566,-3.414 -353.763,11.439C-353.975,27.505 -353.94,37.518 -350.687,40.814C-349.894,41.617 -348.91,42.042 -347.84,42.042C-342.933,42.042 -339.255,34.055 -335.698,26.331C-334.515,23.761 -332.978,20.423 -331.942,18.911C-331.264,20.359 -330.367,23.166 -329.613,25.525C-326.671,34.733 -322.64,47.344 -314.544,47.344C-312.265,47.344 -310.417,46.573 -309.049,45.051C-305.062,40.616 -306.124,30.665 -307.469,18.067C-308.085,12.294 -308.722,6.325 -308.937,0.314C-309.453,-14.055 -305.477,-27.806 -298.808,-34.718C-295.782,-37.855 -292.373,-39.446 -288.677,-39.446C-285.993,-39.446 -283.807,-37.953 -282.182,-35.008C-280.596,-32.137 -279.724,-28.168 -279.724,-23.832C-279.724,-17.552 -281.256,-12.896 -283.48,-9.951C-283.328,-14.636 -283.914,-18.452 -285.861,-20.769C-287.163,-22.318 -288.94,-23.103 -291.142,-23.103C-296.189,-23.103 -299.205,-17.645 -299.205,-12.369C-299.205,-9.777 -298.458,-7.395 -297.103,-5.661C-295.958,-4.197 -293.809,-2.452 -290.073,-2.452C-289.346,-2.452 -288.633,-2.521 -287.941,-2.657C-288.414,0.842 -289.052,4.491 -289.642,7.864C-291.749,19.916 -293.568,30.325 -289.952,34.628C-288.863,35.924 -287.33,36.609 -285.521,36.609C-279.35,36.609 -275.909,29.166 -272.582,21.968C-270.39,17.227 -267.921,11.884 -265.516,11.376C-264.785,12.94 -264.826,18.742 -264.851,22.293C-264.906,30.005 -264.836,34.835 -262.804,36.881C-262.171,37.519 -261.377,37.856 -260.509,37.856C-256.752,37.856 -254.373,31.774 -250.492,21.023C-248.69,16.03 -245,5.808 -242.93,4.951C-241.92,6.568 -242.045,14.022 -242.13,19.022C-242.294,28.728 -242.463,38.765 -238.724,42.568C-237.671,43.639 -236.332,44.205 -234.852,44.205C-229.67,44.205 -223.516,34.278 -218.777,24.678C-218.567,25.484 -218.344,26.26 -218.109,27.005C-214.916,37.127 -210.179,39.252 -206.768,39.252C-202.827,39.252 -198.913,37.348 -195.384,34.373C-192.306,38.12 -187.937,40.089 -182.649,40.089C-177.138,40.089 -171.138,35.799 -166.187,28.318C-162.859,23.289 -160.439,17.413 -159.503,12.337C-159.373,12.309 -159.243,12.28 -159.113,12.252C-157.405,11.88 -155.772,11.524 -154.319,11.391C-154.269,12.996 -154.641,16.337 -154.95,19.119C-155.891,27.595 -157.117,38.627 -154.372,45.931C-161.677,51.364 -171.846,56.388 -187.189,56.915C-197.183,57.252 -207.67,56.163 -217.814,55.106C-225.474,54.306 -233.395,53.481 -241.11,53.266C-263.845,52.643 -283.301,62.887 -294.45,81.396C-303.807,96.931 -305.531,115.442 -298.741,127.459C-294.511,134.944 -287.235,139.067 -278.252,139.067C-269.507,139.067 -263.238,132.633 -257.248,123.017C-257.218,123.321 -257.188,123.622 -257.156,123.92C-256.174,133.381 -255.413,134.274 -253.644,134.274C-251.503,134.274 -250.791,131.963 -249.611,128.135C-247.067,119.878 -243.936,111.817 -236.188,111.817C-235.219,111.817 -234.314,112.273 -233.499,113.171C-232.134,114.672 -231.203,117.219 -230.94,119.921C-231.428,120.172 -231.914,120.422 -232.393,120.666C-239.299,124.201 -244.754,126.993 -244.754,131.471C-244.754,135.268 -241.294,138.213 -238.316,138.213C-232.865,138.213 -227.864,130.185 -227.199,123.278C-227.163,122.907 -227.138,122.534 -227.124,122.162C-224.227,120.628 -221.274,118.943 -218.593,116.981C-218.191,119.502 -217.572,121.727 -216.751,123.58C-214.266,129.186 -210.466,130.363 -207.717,130.363C-203.224,130.363 -199.794,126.033 -197.29,122.873C-196.858,122.327 -196.349,121.685 -195.881,121.139C-195.841,121.44 -195.802,121.746 -195.766,122.034C-195.135,127.036 -193.961,136.347 -186.438,136.347C-179.621,136.347 -174.823,129.006 -173.022,120.446C-170.4,119.66 -167.931,118.625 -165.993,117.813C-165.275,117.511 -164.453,117.167 -163.821,116.923C-163.729,117.487 -163.644,118.188 -163.573,118.768C-163.018,123.308 -161.984,131.76 -154.386,131.76C-149.91,131.76 -145.855,128.835 -142.967,123.523C-141.811,121.396 -140.88,118.937 -140.228,116.36C-135.325,114.667 -130.532,111.676 -126.696,109.282C-124.941,108.187 -122.863,106.89 -121.583,106.297C-121.597,107.917 -122.068,110.94 -122.431,113.278C-123.637,121.031 -124.267,126.301 -122.123,128.804C-121.386,129.664 -120.384,130.119 -119.226,130.119C-116.165,130.119 -113.989,125.42 -109.745,115.645C-107.19,109.761 -102.575,99.133 -99.697,97.797C-99.395,99.835 -100.458,105.642 -101.185,109.613C-102.871,118.818 -103.797,124.587 -101.705,127.097C-101.061,127.87 -100.147,128.296 -99.133,128.296C-96.028,128.296 -93.756,124.363 -90.008,117.411C-87.951,113.596 -84.644,107.463 -82.423,106.303C-82.177,108.08 -82.599,112.413 -82.918,115.694C-83.746,124.188 -84.684,133.814 -81.07,137.797C-79.955,139.026 -78.459,139.675 -76.744,139.675C-69.057,139.675 -66.481,130.568 -63.753,120.925C-60.153,108.197 -56.085,93.86 -40.979,92.544L-41.063,92.942C-41.159,93.389 -40.874,93.829 -40.427,93.924L-39.427,94.137C-38.979,94.233 -38.54,93.948 -38.444,93.501L-38.255,92.613L-37.443,92.774L-37.617,93.589C-37.748,94.205 -37.355,94.812 -36.739,94.943L-35.338,95.242C-34.721,95.374 -34.115,94.981 -33.984,94.364L-33.798,93.492L-32.999,93.649L-33.162,94.476C-33.302,95.191 -32.847,95.888 -32.135,96.046L-19.591,98.834C-18.855,98.998 -18.128,98.523 -17.982,97.783L-17.943,97.584L-17.853,97.602C-17.481,97.675 -17.122,97.502 -16.931,97.199L-5.754,99.401C-5.239,99.502 -4.736,99.338 -4.378,99.007L-0.701,100.038L0.815,99.137L1.061,97.888L0,96.479ZM-142.659,40.672C-139.224,37.373 -136.512,34.767 -134.42,34.767C-133.702,34.767 -133.409,35.043 -133.216,35.314C-132.872,35.797 -132.683,36.602 -132.683,37.581C-132.683,45.622 -140.016,49.828 -143.948,49.828C-146.129,49.828 -147.805,49.141 -149.07,47.727C-149.271,47.502 -149.462,47.261 -149.64,47.006C-146.959,44.803 -144.677,42.611 -142.659,40.672M-290.073,-6.202C-291.859,-6.202 -293.23,-6.797 -294.149,-7.971C-294.991,-9.048 -295.455,-10.61 -295.455,-12.369C-295.455,-15.672 -293.683,-19.353 -291.142,-19.353C-289.733,-19.353 -289.092,-18.784 -288.732,-18.356C-287.114,-16.431 -286.977,-11.983 -287.468,-6.725C-288.321,-6.377 -289.198,-6.202 -290.073,-6.202M-207.64,-32.319C-207.404,-32.319 -207.109,-32.319 -206.785,-31.652C-206.51,-31.089 -206.183,-29.956 -206.183,-27.75C-206.183,-24.589 -206.859,-20.234 -208.074,-15.157C-210.987,-15.111 -213.688,-15.035 -216.156,-14.936C-214.424,-25.232 -211.219,-32.319 -207.64,-32.319M-217.512,2.254C-217.512,-2.464 -217.225,-6.996 -216.711,-11.138C-214.363,-11.239 -211.811,-11.321 -209.042,-11.375C-210.958,-4.332 -213.739,3.753 -217.102,11.852C-217.372,8.802 -217.512,5.578 -217.512,2.254M-194.623,28.435C-195.83,25.657 -196.479,22.254 -196.479,18.57C-196.479,10.185 -193.013,2.257 -189.346,2.257C-187.906,2.257 -186.886,2.669 -186.228,3.516C-185.557,4.38 -185.203,5.758 -185.203,7.501C-185.203,13.366 -189.18,22.252 -194.623,28.435M-162.869,9.194C-164.038,9.403 -165.171,9.548 -166.201,9.548C-167.422,9.548 -168.377,9.159 -169.038,8.392C-169.628,7.708 -169.967,6.723 -169.967,5.689C-169.967,4.414 -169.368,2.257 -167.125,2.257C-165.65,2.257 -164.599,2.71 -163.913,3.642C-163.203,4.607 -162.828,6.134 -162.828,8.059C-162.828,8.426 -162.842,8.805 -162.869,9.194M-249.473,73.432C-248.233,71.496 -246.852,70.555 -245.251,70.555C-243.593,70.555 -242.974,71.228 -242.62,71.816C-239.889,76.346 -244.42,91.454 -253.898,109.411C-254.025,109.653 -254.153,109.894 -254.28,110.134C-254.694,96.563 -253.882,80.317 -249.473,73.432M-238.316,134.463C-239.237,134.463 -241.004,133.2 -241.004,131.471C-241.004,129.348 -236.051,126.753 -231.116,124.226C-232.105,129.578 -235.836,134.463 -238.316,134.463M-203.949,78.927C-202.862,78.927 -202.465,79.344 -202.205,79.972C-200.471,84.148 -205.697,98.277 -215.395,108.996C-215.285,94.026 -209.565,78.927 -203.949,78.927M-176.319,117.435C-177.567,117.709 -178.799,117.876 -179.956,117.876C-182.634,117.876 -184.741,116.962 -186.219,115.158C-187.527,113.562 -188.248,111.37 -188.248,108.985C-188.248,105.156 -186.303,101.28 -182.586,101.28C-180.501,101.28 -178.925,102.288 -177.769,104.362C-176.618,106.423 -175.985,109.463 -175.985,112.922C-175.985,114.413 -176.1,115.934 -176.319,117.435M-143.414,113.409C-144.744,113.747 -146.052,113.942 -147.307,113.942C-149.893,113.942 -152.037,113.019 -153.507,111.272C-154.818,109.716 -155.569,107.515 -155.569,105.235C-155.569,101.479 -153.477,97.437 -148.885,97.437C-147.01,97.437 -145.591,98.332 -144.549,100.175C-143.49,102.046 -142.908,104.825 -142.908,108.003C-142.908,109.792 -143.084,111.62 -143.414,113.409" style="fill:rgb(35,31,32);fill-rule:nonzero;stroke:white;stroke-width:0.24px;"/>
    </g>
</svg>
